# xmcd
#
# Track frame offsets:
# 150
# 12032
# 21648
# 38255
# 47834
# 58095
# 74851
# 80962
# 95418
# 105689
#
# Disc length: 1539 seconds
#
#
# Revision: 0
# Processed by: cddbd v1.5.2PL0 Copyright (c) Steve Scherf et al.
# Submitted via: FreeRIP 2.943 
#
DISCID=8806010a
DTITLE=Various Artist - Dope, Guns and Fucking In the Streets Volume 13
DYEAR=2015
DGENRE=Noise
TTITLE0=Big Business - You Need Surgery
TTITLE1=Blind Shake - Mildew
TTITLE2=feedtime - Herb
TTITLE3=CTMF (Billy Childish's new outfit) - He Wore a Pagan Robe
TTITLE4=Useless Children - Alcohol
TTITLE5=Hepa/Titus - Mr. Moustache
TTITLE6=Whores - Bloody Like the Day You Were Born
TTITLE7=No Anchor - Pussyfootin'
TTITLE8=Seawhores - Bath Salts
TTITLE9=Die Nerven - Gefällt Mir Nicht Mehr
EXTD=Bash 15.  scale 153
EXTT0=
EXTT1=
EXTT2=
EXTT3=
EXTT4=
EXTT5=
EXTT6=
EXTT7=
EXTT8=
EXTT9=
PLAYORDER=
